<svg width="24" height="24" viewBox="0 0 24 24" fill="none" xmlns="http://www.w3.org/2000/svg">
<path d="M2.1 3C2.1 2.44772 2.54771 2 3.1 2H8.1C8.41476 2 8.71114 2.14819 8.9 2.4L11.3 5.6C11.4889 5.85181 11.7852 6 12.1 6H12.6H20.1C20.6523 6 21.1 6.44772 21.1 7V10V17H3.1C2.54771 17 2.1 16.5523 2.1 16V3Z" fill="#FCD354"/>
<path d="M10.5 3.5H20C20.5523 3.5 21 3.94772 21 4.5V6H12.5L10.5 3.5Z" fill="#FFB125"/>
<path d="M6 17H3.5C2.67157 17 2 16.3284 2 15.5V3.5C2 2.67157 2.67157 2 3.5 2H8.60963C8.933 2 9.23641 2.15637 9.42405 2.41973L11.6759 5.58028C11.8636 5.84363 12.167 6 12.4904 6H18.625M21 10.5V5C21 4.17157 20.3284 3.5 19.5 3.5H12.925" stroke="black" stroke-linecap="round" stroke-linejoin="round"/>
<circle cx="15.5" cy="16.5" r="6" fill="white" stroke="black"/>
<path d="M15.4999 13.2693V16.5001M15.4999 19.7308V16.5001M15.4999 16.5001H12.2695M15.4999 16.5001H18.7311" stroke="black" stroke-linecap="round"/>
</svg>
