<svg width="22" height="15" viewBox="0 0 22 15" fill="none" xmlns="http://www.w3.org/2000/svg">
<path d="M18 7L18 1" stroke="#33363F" stroke-width="2" stroke-linecap="round" stroke-linejoin="round"/>
<path d="M15 4L21 4" stroke="#33363F" stroke-width="2" stroke-linecap="round" stroke-linejoin="round"/>
<path fill-rule="evenodd" clip-rule="evenodd" d="M9.68208 11.7458C8.66576 12.5361 7.38866 13.0067 6.00167 13.0067C2.68704 13.0067 0 10.3189 0 7.00335C0 3.68779 2.68704 1 6.00167 1C9.31631 1 12.0033 3.68779 12.0033 7.00335C12.0033 8.39059 11.533 9.66794 10.743 10.6845L13.7799 13.7186C14.0731 14.0115 14.0734 14.4867 13.7806 14.7799C13.4878 15.0731 13.0128 15.0734 12.7196 14.7805L9.68208 11.7458ZM10.5029 7.00335C10.5029 9.49002 8.48765 11.5059 6.00167 11.5059C3.5157 11.5059 1.50042 9.49002 1.50042 7.00335C1.50042 4.51668 3.5157 2.50084 6.00167 2.50084C8.48765 2.50084 10.5029 4.51668 10.5029 7.00335Z" fill="#444444"/>
</svg>
