<svg width="20" height="20" viewBox="0 0 20 20" fill="none" xmlns="http://www.w3.org/2000/svg">
<path d="M11.9225 2.22529H10.9225V2.28989L10.9308 2.35395L11.9225 2.22529ZM11.9225 2.22528H12.9225V2.17541L12.9176 2.12578L11.9225 2.22528ZM11.9225 2.22532L12.9176 2.12582L12.9161 2.11122L12.9142 2.09667L11.9225 2.22532ZM12.1015 3.26424L12.9845 2.79482L12.9845 2.79482L12.1015 3.26424ZM13.2769 3.75111L12.9845 2.79482L12.9845 2.79482L13.2769 3.75111ZM14.1381 3.14302L14.7713 3.91697L14.7713 3.91697L14.1381 3.14302ZM14.6158 2.79737L15.0239 3.71028L15.0239 3.71028L14.6158 2.79737ZM15.5209 2.84251L15.0239 3.71028L15.024 3.71028L15.5209 2.84251ZM15.9619 3.23397L16.7093 2.56961L16.6897 2.54765L16.669 2.52687L15.9619 3.23397ZM15.9619 3.23398L15.2145 3.89834L15.234 3.92031L15.2548 3.94109L15.9619 3.23398ZM16.766 4.0381L16.0589 4.74521L16.0589 4.74521L16.766 4.0381ZM17.1575 4.47906L18.0252 3.98211L18.0252 3.9821L17.1575 4.47906ZM17.2026 5.38416L18.1155 5.79231L18.1155 5.79231L17.2026 5.38416ZM16.8569 5.86189L16.083 5.22865L16.083 5.22865L16.8569 5.86189ZM16.2488 6.72311L17.2051 7.01553L17.2051 7.01552L16.2488 6.72311ZM16.7357 7.89849L16.2663 8.78146L16.2663 8.78147L16.7357 7.89849ZM17.7747 8.07747L17.8742 7.08243L17.8742 7.08243L17.7747 8.07747ZM18.3569 8.17086L18.7139 7.23673L18.7139 7.23673L18.3569 8.17086ZM18.965 8.84277L18 9.10498L18 9.10499L18.965 8.84277ZM18.965 11.1571L19.9301 11.4193L19.9301 11.4193L18.965 11.1571ZM18.3569 11.8292L18 10.895L18 10.895L18.3569 11.8292ZM17.7748 11.9225L17.8743 12.9176L17.8743 12.9176L17.7748 11.9225ZM16.7362 12.1014L16.2669 11.2183L16.2669 11.2183L16.7362 12.1014ZM16.2492 13.277L15.293 13.5696L15.293 13.5696L16.2492 13.277ZM16.8571 14.1378L16.0831 14.7711L16.0831 14.7711L16.8571 14.1378ZM17.2026 14.6153L16.2897 15.0236L16.2897 15.0236L17.2026 14.6153ZM17.1574 15.5206L16.2897 15.0236L16.2897 15.0236L17.1574 15.5206ZM15.521 17.1571L15.024 16.2893L15.024 16.2893L15.521 17.1571ZM14.6158 17.2022L14.2077 18.1151L14.2077 18.1151L14.6158 17.2022ZM14.1381 16.8566L13.431 17.5637L13.4663 17.599L13.5049 17.6306L14.1381 16.8566ZM14.1381 16.8566L14.8452 16.1495L14.81 16.1142L14.7714 16.0826L14.1381 16.8566ZM13.2769 16.2485L12.9845 17.2048L12.9845 17.2048L13.2769 16.2485ZM12.1015 16.7354L12.9845 17.2048L12.9845 17.2048L12.1015 16.7354ZM11.9226 17.7745L10.9275 17.675L10.9275 17.675L11.9226 17.7745ZM11.8291 18.357L10.895 18L10.895 18L11.8291 18.357ZM11.1573 18.965L11.4196 19.93L11.4196 19.93L11.1573 18.965ZM8.84277 18.965L8.58055 19.93L8.58056 19.93L8.84277 18.965ZM8.17086 18.3569L9.10499 18L9.10499 18L8.17086 18.3569ZM8.07747 17.7747L9.07251 17.6752L9.07251 17.6752L8.07747 17.7747ZM7.89849 16.7357L8.78145 16.2662L8.78145 16.2662L7.89849 16.7357ZM6.72312 16.2488L6.43072 15.2925L6.43072 15.2925L6.72312 16.2488ZM5.86188 16.857L5.22864 16.083L5.21978 16.0903L5.21109 16.0977L5.86188 16.857ZM5.86187 16.857L6.48656 17.6378L6.49979 17.6273L6.51266 17.6162L5.86187 16.857ZM5.86186 16.857L5.23713 16.0761L5.22862 16.083L5.86186 16.857ZM5.38411 17.2027L4.97598 16.2897L4.97598 16.2897L5.38411 17.2027ZM4.47903 17.1575L4.97598 16.2897L4.97598 16.2897L4.47903 17.1575ZM4.03805 16.766L4.74515 16.0589L4.74515 16.0589L4.03805 16.766ZM3.23395 15.9619L2.52685 16.669L2.52685 16.669L3.23395 15.9619ZM2.84246 15.5209L1.97468 16.0179L1.97469 16.0179L2.84246 15.5209ZM2.79732 14.6159L3.71024 15.024L3.71024 15.024L2.79732 14.6159ZM3.14299 14.1381L2.39041 13.4796L2.37951 13.4921L2.36903 13.5049L3.14299 14.1381ZM3.14299 14.1381L3.89557 14.7966L3.90647 14.7842L3.91695 14.7713L3.14299 14.1381ZM3.75111 13.2769L4.7074 13.5693L4.7074 13.5693L3.75111 13.2769ZM3.26424 12.1015L3.73367 11.2185L3.73367 11.2185L3.26424 12.1015ZM2.22529 11.9225L2.32479 10.9275L2.32479 10.9275L2.22529 11.9225ZM1.64308 11.8291L1.28615 12.7633L1.28615 12.7633L1.64308 11.8291ZM1.03499 11.1572L2 10.895L2 10.895L1.03499 11.1572ZM1.03501 8.8427L2 9.10499L2 9.10499L1.03501 8.8427ZM1.64299 8.17089L2 9.10499L2 9.10499L1.64299 8.17089ZM2.2254 8.07746V7.07746H2.17552L2.1259 7.08242L2.2254 8.07746ZM2.2254 8.07746V9.07746H2.27528L2.32491 9.0725L2.2254 8.07746ZM3.2647 7.89841L2.79516 7.0155L2.79516 7.0155L3.2647 7.89841ZM3.75148 6.7232L4.70781 6.4309L4.70781 6.4309L3.75148 6.7232ZM3.14315 5.86164L2.36919 6.49487L2.36919 6.49487L3.14315 5.86164ZM2.79731 5.38364L1.88434 5.79166L1.88434 5.79166L2.79731 5.38364ZM2.84244 4.47877L1.9746 3.98192L1.9746 3.98192L2.84244 4.47877ZM3.2341 4.03758L3.94121 4.74469L3.94121 4.74469L3.2341 4.03758ZM4.03809 3.23359L3.33098 2.52648L3.33098 2.52648L4.03809 3.23359ZM4.03809 3.23359L3.33098 2.52648L3.33098 2.52648L4.03809 3.23359ZM4.47907 2.84209L4.97602 3.70987L4.97602 3.70987L4.47907 2.84209ZM5.38415 2.79695L5.79228 1.88403L5.79228 1.88403L5.38415 2.79695ZM5.86198 3.14269L6.50219 2.37443L6.49521 2.36873L5.86198 3.14269ZM5.86199 3.14269L5.22177 3.91095L5.22875 3.91665L5.86199 3.14269ZM6.72301 3.75072L7.01557 2.79447L7.01556 2.79447L6.72301 3.75072ZM7.8986 3.26377L8.78164 3.73308L8.78164 3.73308L7.8986 3.26377ZM8.07748 2.22518L7.08245 2.12567L7.08245 2.12567L8.07748 2.22518ZM8.17082 1.64316L7.23666 1.28632L7.23665 1.28633L8.17082 1.64316ZM8.84287 1.03496L8.58076 0.0699259L8.58076 0.069926L8.84287 1.03496ZM11.1572 1.03499L11.4194 0.0699752L11.4194 0.0699751L11.1572 1.03499ZM11.8291 1.64307L10.895 2L10.895 2L11.8291 1.64307ZM12.9225 2.22529V2.22528H10.9225V2.22529H12.9225ZM12.9142 2.09667L12.9142 2.09664L10.9308 2.35395L10.9308 2.35397L12.9142 2.09667ZM12.9845 2.79482C13.0193 2.86035 13.0088 2.88081 12.9869 2.74114C12.9663 2.60928 12.9476 2.4259 12.9176 2.12582L10.9275 2.32482C10.9552 2.6014 10.9797 2.85052 11.011 3.05049C11.0411 3.24262 11.0912 3.49422 11.2185 3.73366L12.9845 2.79482ZM12.9845 2.79482L12.9845 2.79482L11.2185 3.73366C11.668 4.57913 12.6537 4.98741 13.5693 4.7074L12.9845 2.79482ZM13.5048 2.36906C13.2714 2.56004 13.1285 2.67648 13.0207 2.75512C12.9065 2.83842 12.9135 2.81653 12.9845 2.79482L13.5693 4.7074C13.8287 4.6281 14.042 4.48565 14.1991 4.37106C14.3627 4.2518 14.5562 4.09299 14.7713 3.91697L13.5048 2.36906ZM14.2076 1.88445C13.9337 2.00692 13.6932 2.21495 13.5048 2.36906L14.7713 3.91697C14.8972 3.81402 14.9651 3.75878 15.0163 3.72075C15.0623 3.68658 15.0566 3.6957 15.0239 3.71028L14.2076 1.88445ZM16.0179 1.97474C15.4635 1.65726 14.7908 1.62371 14.2076 1.88445L15.0239 3.71028L15.0239 3.71028L16.0179 1.97474ZM16.669 2.52687C16.4969 2.35478 16.2783 2.12386 16.0179 1.97474L15.024 3.71028C14.9929 3.69252 14.9881 3.68287 15.0305 3.72145C15.0777 3.76439 15.1398 3.82612 15.2547 3.94108L16.669 2.52687ZM16.7093 2.56962L16.7093 2.56961L15.2144 3.89834L15.2145 3.89834L16.7093 2.56962ZM17.4731 3.33099L16.669 2.52687L15.2548 3.94109L16.0589 4.74521L17.4731 3.33099ZM18.0252 3.9821C17.8761 3.72171 17.6452 3.50309 17.4731 3.33099L16.0589 4.74521C16.1738 4.86018 16.2356 4.92227 16.2785 4.96946C16.3171 5.01186 16.3074 5.00703 16.2897 4.97603L18.0252 3.9821ZM18.1155 5.79231C18.3763 5.20912 18.3427 4.53646 18.0252 3.98211L16.2897 4.97602L16.2897 4.97602L18.1155 5.79231ZM17.6309 6.49513C17.785 6.30676 17.9931 6.06624 18.1155 5.79231L16.2897 4.97602C16.3043 4.9434 16.3134 4.93763 16.2792 4.98366C16.2412 5.03489 16.1859 5.10282 16.083 5.22865L17.6309 6.49513ZM17.2051 7.01552C17.1834 7.08649 17.1615 7.09353 17.2448 6.9793C17.3235 6.87146 17.4399 6.72855 17.6309 6.49513L16.083 5.22865C15.907 5.4438 15.7482 5.63731 15.6289 5.80085C15.5143 5.95799 15.3718 6.17136 15.2925 6.43069L17.2051 7.01552ZM17.2051 7.01553L17.2051 7.01553L15.2925 6.43069C15.0126 7.34634 15.4208 8.33198 16.2663 8.78146L17.2051 7.01553ZM17.8742 7.08243C17.5741 7.05242 17.3907 7.03371 17.2588 7.01307C17.1191 6.9912 17.1396 6.98069 17.2051 7.01552L16.2663 8.78147C16.5057 8.90877 16.7573 8.95891 16.9495 8.989C17.1494 9.0203 17.3986 9.04485 17.6752 9.07251L17.8742 7.08243ZM18.7139 7.23673C18.4336 7.12962 18.1164 7.10665 17.8742 7.08243L17.6752 9.07251C17.837 9.08869 17.9241 9.09765 17.9872 9.10699C18.0439 9.11537 18.0334 9.11774 18 9.10499L18.7139 7.23673ZM19.93 8.58056C19.7625 7.9641 19.3106 7.46475 18.7139 7.23673L18 9.10499L18 9.10498L19.93 8.58056ZM20 9.43142C20 9.18803 20.0087 8.87013 19.93 8.58055L18 9.10499C17.9906 9.0705 17.994 9.06026 17.9967 9.11753C17.9997 9.18127 18 9.26882 18 9.43142H20ZM20 10.5687V9.43142H18V10.5687H20ZM19.9301 11.4193C20.0087 11.1298 20 10.812 20 10.5687H18C18 10.7312 17.9997 10.8188 17.9967 10.8825C17.994 10.9397 17.9906 10.9295 18 10.895L19.9301 11.4193ZM18.7137 12.7633C19.3106 12.5353 19.7626 12.0359 19.9301 11.4193L18 10.895L18 10.895L18.7137 12.7633ZM17.8743 12.9176C18.1164 12.8933 18.4335 12.8704 18.7137 12.7633L18 10.895C18.0334 10.8823 18.0439 10.8846 17.9872 10.893C17.9241 10.9023 17.837 10.9113 17.6753 10.9275L17.8743 12.9176ZM17.2055 12.9844C17.14 13.0193 17.1195 13.0088 17.2591 12.9869C17.391 12.9663 17.5743 12.9476 17.8743 12.9176L17.6753 10.9275C17.3988 10.9551 17.1497 10.9797 16.9499 11.011C16.7578 11.041 16.5063 11.0911 16.2669 11.2183L17.2055 12.9844ZM17.2055 12.9844L17.2055 12.9844L16.2669 11.2183C15.4212 11.6678 15.0127 12.6538 15.293 13.5696L17.2055 12.9844ZM17.631 13.5046C17.4401 13.2713 17.3238 13.1284 17.2451 13.0207C17.1619 12.9065 17.1838 12.9135 17.2055 12.9844L15.293 13.5696C15.3723 13.8288 15.5147 14.0421 15.6292 14.1991C15.7484 14.3626 15.9072 14.556 16.0831 14.7711L17.631 13.5046ZM18.1155 14.2071C17.993 13.9333 17.7851 13.6929 17.631 13.5046L16.0831 14.7711C16.186 14.8968 16.2413 14.9647 16.2793 15.0159C16.3134 15.062 16.3043 15.0562 16.2897 15.0236L18.1155 14.2071ZM18.0252 16.0177C18.3428 15.4632 18.3763 14.7904 18.1155 14.2071L16.2897 15.0236L16.2897 15.0236L18.0252 16.0177ZM17.4732 16.6685C17.6453 16.4965 17.8761 16.278 18.0252 16.0177L16.2897 15.0236C16.3075 14.9926 16.3171 14.9878 16.2786 15.0301C16.2356 15.0773 16.1739 15.1394 16.059 15.2543L17.4732 16.6685ZM17.4732 16.6685L17.4732 16.6685L16.059 15.2543L16.059 15.2543L17.4732 16.6685ZM16.669 17.4727L17.4732 16.6685L16.059 15.2543L15.2548 16.0585L16.669 17.4727ZM16.0179 18.0249C16.2783 17.8757 16.4969 17.6448 16.669 17.4727L15.2548 16.0585C15.1398 16.1735 15.0777 16.2352 15.0305 16.2781C14.9881 16.3167 14.993 16.3071 15.024 16.2893L16.0179 18.0249ZM14.2077 18.1151C14.7909 18.3759 15.4636 18.3423 16.0179 18.0249L15.024 16.2893L15.024 16.2893L14.2077 18.1151ZM13.5049 17.6306C13.6932 17.7847 13.9338 17.9927 14.2077 18.1151L15.024 16.2893C15.0566 16.3039 15.0624 16.313 15.0164 16.2789C14.9651 16.2408 14.8972 16.1856 14.7714 16.0826L13.5049 17.6306ZM13.431 17.5637L13.431 17.5637L14.8452 16.1495L14.8452 16.1495L13.431 17.5637ZM12.9845 17.2048C12.9135 17.1831 12.9065 17.1612 13.0207 17.2445C13.1286 17.3231 13.2715 17.4396 13.5049 17.6305L14.7714 16.0826C14.5562 15.9066 14.3627 15.7478 14.1992 15.6285C14.0421 15.514 13.8287 15.3715 13.5694 15.2922L12.9845 17.2048ZM12.9845 17.2048L12.9845 17.2048L13.5694 15.2922C12.6537 15.0122 11.668 15.4205 11.2186 16.2659L12.9845 17.2048ZM12.9176 17.874C12.9476 17.5738 12.9663 17.3904 12.987 17.2585C13.0088 17.1188 13.0194 17.1392 12.9845 17.2048L11.2186 16.2659C11.0913 16.5054 11.0411 16.757 11.011 16.9492C10.9797 17.1492 10.9552 17.3983 10.9275 17.675L12.9176 17.874ZM12.7632 18.7141C12.8704 18.4336 12.8934 18.1163 12.9176 17.874L10.9275 17.675C10.9113 17.8369 10.9024 17.924 10.893 17.9872C10.8846 18.0439 10.8822 18.0334 10.895 18L12.7632 18.7141ZM11.4196 19.93C12.0359 19.7624 12.5352 19.3106 12.7632 18.7141L10.895 18L10.895 18L11.4196 19.93ZM10.5685 20C10.8119 20 11.13 20.0087 11.4196 19.93L10.895 18C10.9295 17.9906 10.9398 17.994 10.8825 17.9967C10.8187 17.9997 10.7311 18 10.5685 18V20ZM9.43142 20H10.5685V18H9.43142V20ZM8.58056 19.93C8.87013 20.0087 9.18803 20 9.43142 20V18C9.26882 18 9.18127 17.9997 9.11752 17.9967C9.06026 17.994 9.0705 17.9906 9.10498 18L8.58056 19.93ZM7.23673 18.7139C7.46475 19.3106 7.9641 19.7625 8.58055 19.93L9.10499 18L9.10499 18L7.23673 18.7139ZM7.08243 17.8742C7.10665 18.1164 7.12962 18.4336 7.23673 18.7139L9.10499 18C9.11774 18.0334 9.11537 18.0439 9.10699 17.9872C9.09765 17.9241 9.08869 17.837 9.07251 17.6752L7.08243 17.8742ZM7.01553 17.2051C6.98069 17.1396 6.99119 17.1191 7.01306 17.2588C7.03371 17.3907 7.05242 17.5741 7.08243 17.8742L9.07251 17.6752C9.04485 17.3986 9.0203 17.1494 8.98899 16.9495C8.95891 16.7573 8.90876 16.5057 8.78145 16.2662L7.01553 17.2051ZM7.01553 17.2051L7.01553 17.2051L8.78145 16.2662C8.33197 15.4208 7.34635 15.0126 6.43072 15.2925L7.01553 17.2051ZM6.49511 17.6309C6.72854 17.4399 6.87146 17.3235 6.9793 17.2448C7.09354 17.1615 7.0865 17.1834 7.01553 17.2051L6.43072 15.2925C6.17137 15.3718 5.958 15.5143 5.80086 15.6289C5.63731 15.7482 5.44379 15.907 5.22864 16.083L6.49511 17.6309ZM6.51266 17.6162L6.51267 17.6162L5.21109 16.0977L5.21108 16.0977L6.51266 17.6162ZM6.48656 17.6378L6.48656 17.6378L5.23717 16.0761L5.23717 16.0761L6.48656 17.6378ZM5.79224 18.1156C6.06619 17.9931 6.30672 17.7851 6.4951 17.6309L5.22862 16.083C5.10278 16.186 5.03485 16.2412 4.98362 16.2793C4.93759 16.3134 4.94335 16.3043 4.97598 16.2897L5.79224 18.1156ZM3.98209 18.0253C4.53643 18.3427 5.20907 18.3763 5.79224 18.1156L4.97598 16.2897L4.97598 16.2897L3.98209 18.0253ZM3.33094 17.4731C3.50305 17.6452 3.72169 17.8762 3.98209 18.0253L4.97598 16.2897C5.00699 16.3075 5.01182 16.3171 4.96942 16.2786C4.92222 16.2356 4.86013 16.1739 4.74515 16.0589L3.33094 17.4731ZM2.52685 16.669L3.33094 17.4731L4.74515 16.0589L3.94106 15.2548L2.52685 16.669ZM1.97469 16.0179C2.12381 16.2783 2.35475 16.4969 2.52685 16.669L3.94106 15.2548C3.82609 15.1398 3.76436 15.0777 3.72141 15.0305C3.68283 14.9881 3.69248 14.993 3.71024 15.024L1.97469 16.0179ZM1.8844 14.2077C1.62368 14.7909 1.65723 15.4635 1.97468 16.0179L3.71024 15.024L3.71024 15.024L1.8844 14.2077ZM2.36903 13.5049C2.21491 13.6932 2.00687 13.9338 1.8844 14.2077L3.71024 15.024C3.69565 15.0566 3.68654 15.0624 3.72071 15.0164C3.75874 14.9651 3.81399 14.8972 3.91695 14.7713L2.36903 13.5049ZM2.39042 13.4796L2.39041 13.4796L3.89557 14.7966L3.89557 14.7966L2.39042 13.4796ZM2.79482 12.9845C2.81652 12.9135 2.83842 12.9065 2.75511 13.0207C2.67647 13.1285 2.56002 13.2714 2.36904 13.5049L3.91695 14.7713C4.09298 14.5562 4.25178 14.3627 4.37105 14.1991C4.48564 14.042 4.62809 13.8286 4.7074 13.5693L2.79482 12.9845ZM2.79482 12.9845L2.79482 12.9845L4.7074 13.5693C4.98739 12.6537 4.57912 11.668 3.73367 11.2185L2.79482 12.9845ZM2.12578 12.9176C2.42588 12.9476 2.60927 12.9663 2.74113 12.9869C2.88081 13.0088 2.86035 13.0193 2.79482 12.9845L3.73367 11.2185C3.49422 11.0912 3.24262 11.0411 3.05048 11.011C2.85051 10.9797 2.60138 10.9552 2.32479 10.9275L2.12578 12.9176ZM1.28615 12.7633C1.56645 12.8704 1.88362 12.8933 2.12579 12.9176L2.32479 10.9275C2.16301 10.9113 2.07592 10.9023 2.0128 10.893C1.95609 10.8846 1.96662 10.8823 2 10.895L1.28615 12.7633ZM0.0699746 11.4194C0.237478 12.0359 0.6894 12.5353 1.28615 12.7633L2 10.895L2 10.895L0.0699746 11.4194ZM0 10.5686C0 10.812 -0.00870213 11.1299 0.0699748 11.4194L2 10.895C2.00937 10.9295 2.00596 10.9397 2.00326 10.8825C2.00026 10.8187 2 10.7312 2 10.5686H0ZM0 9.43151V10.5686H2V9.43151H0ZM0.0700218 8.58041C-0.00870796 8.87006 0 9.18806 0 9.43151H2C2 9.26887 2.00026 9.18129 2.00327 9.11753C2.00597 9.06025 2.00938 9.07049 2 9.10499L0.0700218 8.58041ZM1.28598 7.23678C0.689371 7.46481 0.237547 7.96407 0.0700217 8.58041L2 9.10499L2 9.10499L1.28598 7.23678ZM2.1259 7.08242C1.88365 7.10665 1.56637 7.12962 1.28598 7.23678L2 9.10499C1.96661 9.11775 1.95608 9.11538 2.0128 9.10699C2.07595 9.09765 2.16307 9.08868 2.3249 9.0725L2.1259 7.08242ZM2.2254 7.07746H2.2254V9.07746H2.2254V7.07746ZM2.79516 7.0155C2.8607 6.98064 2.88117 6.99115 2.74145 7.01303C2.60955 7.03369 2.4261 7.0524 2.1259 7.08242L2.32491 9.0725C2.60159 9.04483 2.8508 9.02028 3.05084 8.98896C3.24304 8.95886 3.49472 8.90869 3.73424 8.78132L2.79516 7.0155ZM2.79516 7.0155L2.79516 7.0155L3.73424 8.78132C4.57946 8.33182 4.98763 7.34641 4.70781 6.4309L2.79516 7.0155ZM2.36919 6.49487C2.56025 6.72839 2.67675 6.87136 2.75542 6.97925C2.83877 7.09354 2.81686 7.0865 2.79516 7.0155L4.70781 6.4309C4.62851 6.17146 4.48601 5.95801 4.37138 5.80082C4.25208 5.63722 4.09321 5.44363 3.91711 5.2284L2.36919 6.49487ZM1.88434 5.79166C2.00684 6.06575 2.21499 6.3064 2.36919 6.49487L3.91711 5.2284C3.81409 5.10249 3.75881 5.03452 3.72076 4.98326C3.68656 4.9372 3.69569 4.94296 3.71028 4.97561L1.88434 5.79166ZM1.9746 3.98192C1.6573 4.53616 1.62376 5.2086 1.88434 5.79166L3.71028 4.97561L3.71028 4.97561L1.9746 3.98192ZM2.52699 3.33047C2.35481 3.50265 2.12376 3.72139 1.9746 3.98192L3.71028 4.97561C3.69252 5.00664 3.68286 5.01147 3.72146 4.96905C3.76442 4.92183 3.82618 4.85971 3.94121 4.74469L2.52699 3.33047ZM3.33098 2.52648L2.52699 3.33047L3.94121 4.74469L4.74519 3.9407L3.33098 2.52648ZM3.33098 2.52648L3.33098 2.52648L4.74519 3.9407L4.7452 3.9407L3.33098 2.52648ZM3.98213 1.97431C3.72173 2.12343 3.50309 2.35438 3.33098 2.52648L4.7452 3.9407C4.86017 3.82572 4.92226 3.76399 4.96946 3.72105C5.01186 3.68246 5.00703 3.69211 4.97602 3.70987L3.98213 1.97431ZM5.79228 1.88403C5.20911 1.62331 4.53647 1.65686 3.98213 1.97431L4.97602 3.70987L4.97602 3.70987L5.79228 1.88403ZM6.49521 2.36873C6.30681 2.21458 6.06624 2.0065 5.79228 1.88403L4.97602 3.70987C4.94338 3.69528 4.93762 3.68616 4.98367 3.72035C5.03492 3.7584 5.10287 3.81366 5.22874 3.91664L6.49521 2.36873ZM6.50217 2.37447L6.50216 2.37446L5.22179 3.91091L5.2218 3.91091L6.50217 2.37447ZM7.01556 2.79447C7.08652 2.81618 7.09356 2.83807 6.97932 2.75476C6.8715 2.67612 6.7286 2.55968 6.49522 2.36874L5.22875 3.91665C5.44386 4.09265 5.63733 4.25142 5.80083 4.37066C5.95791 4.48522 6.17121 4.62766 6.43046 4.70697L7.01556 2.79447ZM7.01557 2.79447L7.01557 2.79447L6.43046 4.70697C7.34627 4.98715 8.33218 4.57878 8.78164 3.73308L7.01557 2.79447ZM7.08245 2.12567C7.05245 2.42566 7.03374 2.60899 7.01311 2.7408C6.99125 2.88043 6.98075 2.85998 7.01557 2.79447L8.78164 3.73308C8.90886 3.4937 8.95898 3.24219 8.98905 3.05011C9.02034 2.85021 9.04487 2.60117 9.07252 2.32468L7.08245 2.12567ZM7.23665 1.28633C7.12962 1.56653 7.10665 1.88359 7.08245 2.12567L9.07252 2.32468C9.08869 2.16295 9.09766 2.0759 9.10699 2.01279C9.11537 1.95611 9.11774 1.96663 9.10499 2L7.23665 1.28633ZM8.58076 0.069926C7.96414 0.237406 7.46466 0.68943 7.23666 1.28632L9.10499 2L9.10499 2L8.58076 0.069926ZM9.43129 0C9.188 0 8.87023 -0.008696 8.58076 0.0699259L9.10499 2C9.07051 2.00936 9.06028 2.00596 9.11752 2.00326C9.18124 2.00026 9.26875 2 9.43129 2V0ZM10.5686 0H9.43129V2H10.5686V0ZM11.4194 0.0699751C11.1299 -0.00870209 10.812 0 10.5686 0V2C10.7312 2 10.8187 2.00026 10.8825 2.00326C10.9397 2.00596 10.9295 2.00937 10.895 2L11.4194 0.0699751ZM12.7633 1.28615C12.5353 0.6894 12.0359 0.237479 11.4194 0.0699752L10.895 2L10.895 2L12.7633 1.28615ZM12.9176 2.12578C12.8933 1.88361 12.8704 1.56644 12.7633 1.28615L10.895 2C10.8823 1.96662 10.8846 1.95609 10.893 2.0128C10.9023 2.07592 10.9113 2.16301 10.9275 2.32479L12.9176 2.12578ZM12.6 10C12.6 11.4359 11.4359 12.6 10 12.6V14.6C12.5405 14.6 14.6 12.5405 14.6 10H12.6ZM10 7.4C11.4359 7.4 12.6 8.56406 12.6 10H14.6C14.6 7.45949 12.5405 5.4 10 5.4V7.4ZM7.4 10C7.4 8.56406 8.56406 7.4 10 7.4V5.4C7.45949 5.4 5.4 7.45949 5.4 10H7.4ZM10 12.6C8.56406 12.6 7.4 11.4359 7.4 10H5.4C5.4 12.5405 7.45949 14.6 10 14.6V12.6Z" fill="#33363F"/>
</svg>
