<svg width="24" height="24" viewBox="0 0 24 24" fill="none" xmlns="http://www.w3.org/2000/svg">
<path d="M16.0156 4.51929L19.8999 8.64037M16.0156 4.51929L15.4958 5.03907L14.62 5.91488M16.0156 4.51929L16.5349 4M19.8999 8.64037L19.4108 9.12945L18.5322 10.008M19.8999 8.64037L20.5 8.04028M14.62 5.91488L4.88875 15.6462M14.62 5.91488L17.5 8.92805M18.5322 10.008L8.87763 19.6627M18.5322 10.008L17.5 8.92805M3.82738 19.2498L4.52037 16.0145L4.88875 15.6462M3.82738 19.2498L3.61388 20.2465L3.41695 21.1659C3.41541 21.1731 3.42182 21.1794 3.42894 21.1778L4.28946 20.9817L5.21105 20.7718M3.82738 19.2498L5.21105 20.7718M5.21105 20.7718L8.52305 20.0172L8.87763 19.6627M16.5349 4L20.5 8.04028M16.5349 4L17.2944 3.24055M20.5 8.04028L21.2867 7.25361M17.2944 3.24055L21.2867 7.25361M17.2944 3.24055L17.9763 2.55863M21.2867 7.25361L21.9738 6.5665M17.9763 2.55863V2.55863C18.3529 2.18201 18.9635 2.18201 19.3401 2.55863L21.9738 5.19229C22.3533 5.57177 22.3533 6.18702 21.9738 6.5665V6.5665M17.9763 2.55863L21.9738 6.5665M4.88875 15.6462L7.72297 18.5M8.87763 19.6627L7.72297 18.5M7.72297 18.5L17.5 8.92805" stroke="black" stroke-opacity="0.7" stroke-width="1.2"/>
</svg>
