<svg width="24" height="24" viewBox="0 0 24 24" fill="none" xmlns="http://www.w3.org/2000/svg">
<path d="M21.9703 12C21.9664 13.3132 21.7046 14.6135 21.2 15.8268C20.6953 17.04 19.9576 18.1424 19.029 19.071C18.1004 19.9996 16.9991 20.7362 15.788 21.2387C14.5769 21.7413 13.2796 21.9999 11.9703 21.9999C10.661 21.9999 9.36526 21.7413 8.15711 21.2387C6.94896 20.7362 5.85204 19.9996 4.92898 19.071C4.00593 18.1424 3.2748 17.04 2.77736 15.8268C2.27992 14.6135 2.0259 13.3132 2.02981 12C2.03372 10.6867 2.29548 9.38639 2.80014 8.17314C3.3048 6.95989 4.04249 5.8575 4.97107 4.92892C5.89966 4.00034 7.00096 3.26375 8.2121 2.7612C9.42324 2.25866 10.7205 2 12.0298 2C13.3391 2 14.6348 2.25866 15.843 2.7612C17.0511 3.26375 18.1481 4.00034 19.0711 4.92892C19.9942 5.8575 20.7253 6.95989 21.2227 8.17314C21.7202 9.38639 21.9742 10.6867 21.9703 12L21.9703 12Z" stroke="#4158D0" stroke-width="1.5" stroke-linecap="round" stroke-linejoin="round"/>
<path d="M11.5961 12.8221C11.5774 11.7077 11.6691 11.6332 12.2521 11.2766C14.5102 10.2423 14.3892 7.79011 12.7007 6.93998C11.8814 6.52744 10.8592 6.65338 10.0913 7.15538C10.0542 7.17964 10.0163 7.20503 9.97719 7.23167" stroke="#4158D0" stroke-width="1.5" stroke-linecap="round"/>
<path d="M11.9004 16.95H11.6504M11.9004 16.95C11.9004 16.9858 11.8928 17.0199 11.8792 17.0508M11.9004 16.95C11.9004 16.9141 11.8928 16.88 11.8792 16.8491M11.6504 16.7V16.95M11.6504 16.7C11.6854 16.7 11.7187 16.7071 11.7489 16.7201M11.6504 16.7C11.6154 16.7 11.5821 16.7071 11.5519 16.7201M11.4004 16.95H11.6504M11.4004 16.95C11.4004 16.9858 11.4079 17.0199 11.4216 17.0508M11.4004 16.95C11.4004 16.9141 11.4079 16.88 11.4216 16.8491M11.6504 17.2V16.95M11.6504 17.2C11.621 17.2 11.5927 17.1949 11.5665 17.1855M11.6504 17.2C11.6854 17.2 11.7187 17.1928 11.7489 17.1798M11.6504 16.95L11.8193 16.7657M11.6504 16.95L11.8193 17.1342M11.6504 16.95L11.4815 17.1342M11.6504 16.95L11.4815 16.7657M11.6504 16.95L11.4216 17.0508M11.6504 16.95L11.5665 17.1855M11.6504 16.95L11.7489 17.1798M11.6504 16.95L11.8792 17.0508M11.6504 16.95L11.8792 16.8491M11.6504 16.95L11.7489 16.7201M11.6504 16.95L11.5519 16.7201M11.6504 16.95L11.4216 16.8491M11.8193 16.7657C11.8446 16.7889 11.8652 16.8173 11.8792 16.8491M11.8193 16.7657C11.7987 16.7468 11.775 16.7313 11.7489 16.7201M11.8193 17.1342C11.7987 17.1531 11.775 17.1686 11.7489 17.1798M11.8193 17.1342C11.8446 17.111 11.8652 17.0827 11.8792 17.0508M11.4815 17.1342C11.4561 17.111 11.4356 17.0827 11.4216 17.0508M11.4815 17.1342C11.5059 17.1566 11.5347 17.1742 11.5665 17.1855M11.4815 16.7657C11.5021 16.7468 11.5258 16.7313 11.5519 16.7201M11.4815 16.7657C11.4561 16.7889 11.4356 16.8173 11.4216 16.8491" stroke="#4158D0" stroke-width="1.5"/>
</svg>
