<svg width="24" height="24" viewBox="0 0 24 24" fill="none" xmlns="http://www.w3.org/2000/svg">
<path d="M21.9703 12C21.9664 13.3132 21.7046 14.6135 21.2 15.8268C20.6953 17.04 19.9576 18.1424 19.029 19.071C18.1004 19.9996 16.9991 20.7362 15.788 21.2387C14.5769 21.7413 13.2796 21.9999 11.9703 21.9999C10.661 21.9999 9.36526 21.7413 8.15711 21.2387C6.94896 20.7362 5.85204 19.9996 4.92898 19.071C4.00593 18.1424 3.2748 17.04 2.77736 15.8268C2.27992 14.6135 2.0259 13.3132 2.02981 12C2.03372 10.6867 2.29548 9.38639 2.80014 8.17314C3.3048 6.95989 4.04249 5.8575 4.97107 4.92892C5.89966 4.00034 7.00096 3.26375 8.2121 2.7612C9.42324 2.25866 10.7205 2 12.0298 2C13.3391 2 14.6348 2.25866 15.843 2.7612C17.0511 3.26375 18.1481 4.00034 19.0711 4.92892C19.9942 5.8575 20.7253 6.95989 21.2227 8.17314C21.7202 9.38639 21.9742 10.6867 21.9703 12L21.9703 12Z" stroke="#4158D0" stroke-width="1.5" stroke-linecap="round" stroke-linejoin="round"/>
<path d="M8.81772 8.81802L11.9997 12M15.1817 15.182L11.9997 12M11.9997 12L8.81772 15.182M11.9997 12L15.1817 8.81802" stroke="#4158D0" stroke-width="1.5" stroke-linecap="round"/>
</svg>
