<svg width="24" height="24" viewBox="0 0 24 24" fill="none" xmlns="http://www.w3.org/2000/svg">
<path d="M21.7108 9.61231C22.0243 10.8875 22.0836 12.2121 21.8853 13.5102C21.687 14.8084 21.2349 16.0548 20.5549 17.1782C19.8749 18.3016 18.9803 19.2801 17.9221 20.0578C16.8639 20.8355 15.6629 21.3972 14.3877 21.7108C13.1125 22.0243 11.7879 22.0836 10.4898 21.8853C9.19163 21.687 7.94525 21.2349 6.8218 20.5549C5.69836 19.8749 4.71985 18.9803 3.94215 17.9221C3.16445 16.8639 2.60279 15.6629 2.28923 14.3877C1.97568 13.1124 1.91637 11.7879 2.1147 10.4898C2.31302 9.19163 2.76509 7.94524 3.4451 6.8218C4.12512 5.69835 5.01975 4.71985 6.07792 3.94215C7.13609 3.16445 8.33708 2.60279 9.61232 2.28923C10.8876 1.97568 12.2121 1.91637 13.5102 2.1147C14.8084 2.31302 16.0548 2.76509 17.1782 3.44511C18.3016 4.12512 19.2802 5.01975 20.0579 6.07792C20.8356 7.13609 21.3972 8.33708 21.7108 9.61232L21.7108 9.61231Z" stroke="#4158D0" stroke-width="1.5" stroke-linecap="round"/>
<path d="M12 12.5264V7.26321" stroke="#4158D0" stroke-width="1.5" stroke-linecap="round" stroke-linejoin="round"/>
<path d="M12.2636 17H12.0005M12.2636 17C12.2636 17.0378 12.2557 17.0737 12.2413 17.1062M12.2636 17C12.2636 16.9623 12.2557 16.9263 12.2413 16.8939M12.0005 16.7369V17M12.0005 16.7369C12.0373 16.7369 12.0723 16.7444 12.1042 16.7581M12.0005 16.7369C11.9636 16.7369 11.9286 16.7444 11.8968 16.7581M11.7373 17H12.0005M11.7373 17C11.7373 17.0378 11.7453 17.0737 11.7596 17.1062M11.7373 17C11.7373 16.9623 11.7453 16.9263 11.7596 16.8939M12.0005 17.2632V17M12.0005 17.2632C11.9695 17.2632 11.9398 17.2578 11.9122 17.248M12.0005 17.2632C12.0373 17.2632 12.0723 17.2556 12.1042 17.242M12.0005 17L12.1783 16.806M12.0005 17L12.1783 17.194M12.0005 17L11.8226 17.194M12.0005 17L11.8226 16.806M12.0005 17L11.7596 17.1062M12.0005 17L11.9122 17.248M12.0005 17L12.1042 17.242M12.0005 17L12.2413 17.1062M12.0005 17L12.2413 16.8939M12.0005 17L12.1042 16.7581M12.0005 17L11.8968 16.7581M12.0005 17L11.7596 16.8939M12.1783 16.806C12.2049 16.8305 12.2265 16.8603 12.2413 16.8939M12.1783 16.806C12.1566 16.7862 12.1316 16.7699 12.1042 16.7581M12.1783 17.194C12.1566 17.2139 12.1316 17.2302 12.1042 17.242M12.1783 17.194C12.2049 17.1696 12.2265 17.1397 12.2413 17.1062M11.8226 17.194C11.796 17.1696 11.7744 17.1397 11.7596 17.1062M11.8226 17.194C11.8483 17.2176 11.8787 17.2361 11.9122 17.248M11.8226 16.806C11.8443 16.7862 11.8693 16.7699 11.8968 16.7581M11.8226 16.806C11.796 16.8305 11.7744 16.8603 11.7596 16.8939" stroke="#4158D0" stroke-width="1.5"/>
</svg>
